<?xml version="1.0" standalone="no"?>
<!DOCTYPE svg PUBLIC "-//W3C//DTD SVG 20010904//EN"
 "http://www.w3.org/TR/2001/REC-SVG-20010904/DTD/svg10.dtd">
<svg version="1.0" xmlns="http://www.w3.org/2000/svg"
 width="716.000000pt" height="677.000000pt" viewBox="0 0 716.000000 677.000000"
 preserveAspectRatio="xMidYMid meet">

<g transform="translate(0.000000,677.000000) scale(0.100000,-0.100000)"
fill="#000000" stroke="none">
<path d="M3365 4918 c-62 -34 -84 -72 -94 -162 l-6 -59 -91 -23 c-275 -69
-540 -243 -726 -476 l-70 -88 -972 0 c-763 -1 -979 -4 -1007 -14 -54 -19 -105
-64 -136 -121 l-28 -50 0 -580 c0 -574 0 -580 21 -620 26 -48 63 -87 113 -118
l36 -22 986 -3 986 -2 63 -81 c164 -208 408 -382 650 -463 184 -61 410 -87
576 -66 393 49 706 222 944 520 l72 90 971 0 972 0 50 24 c28 12 65 40 84 61
69 79 66 49 66 680 l0 570 -27 50 c-32 62 -70 98 -128 124 -44 20 -61 21
-1020 21 l-975 1 -50 65 c-72 95 -229 242 -326 307 -138 92 -269 152 -419 191
l-85 23 -6 67 c-6 74 -24 106 -79 144 -31 20 -44 22 -179 22 -87 0 -154 -5
-166 -12z m315 -117 c5 -11 10 -32 10 -48 l0 -28 -155 0 -155 0 0 36 c0 55 9
59 157 59 121 0 133 -2 143 -19z m-10 -191 c302 -37 556 -158 765 -365 160
-159 280 -365 338 -583 30 -112 31 -125 31 -317 0 -192 -1 -205 -31 -317 -76
-285 -250 -540 -488 -715 -139 -104 -342 -191 -521 -225 -105 -20 -379 -16
-484 6 -257 55 -463 168 -650 356 -251 251 -370 540 -370 901 0 216 35 368
130 562 179 363 535 626 930 687 41 7 82 13 90 15 37 7 183 4 260 -5z m-1352
-614 c2 -2 -13 -36 -33 -76 -145 -288 -169 -682 -60 -1007 19 -56 48 -129 64
-162 17 -33 31 -63 31 -66 0 -3 -419 -5 -931 -5 -1030 0 -974 -3 -1022 64
l-22 31 -3 558 c-2 501 -1 561 14 593 17 36 56 69 88 75 26 5 1869 0 1874 -5z
m4339 -12 c15 -12 37 -36 48 -55 19 -33 20 -52 20 -584 0 -533 -1 -551 -20
-584 -11 -19 -40 -45 -64 -58 l-44 -23 -929 0 c-510 0 -928 2 -928 5 0 3 15
36 34 73 44 88 82 200 108 320 29 130 31 384 5 516 -24 117 -61 232 -108 334
l-38 82 944 -2 c942 -3 944 -3 972 -24z"/>
<path d="M3380 4513 c-82 -12 -223 -49 -287 -75 -372 -150 -645 -483 -719
-877 -21 -113 -21 -310 0 -424 19 -99 64 -234 108 -322 81 -159 234 -338 374
-432 132 -90 308 -163 464 -194 96 -19 317 -16 425 5 458 90 814 428 926 880
43 174 35 439 -18 611 -135 431 -488 743 -930 820 -77 14 -278 18 -343 8z
m400 -120 c342 -86 622 -328 749 -645 248 -617 -110 -1295 -764 -1449 -113
-26 -332 -29 -440 -6 -220 48 -419 160 -571 318 -200 211 -308 505 -291 799
29 504 414 922 922 1003 69 12 321 -2 395 -20z"/>
<path d="M3845 4216 c-8 -13 -13 -30 -9 -39 3 -9 42 -36 85 -59 115 -61 204
-133 277 -223 36 -44 72 -84 80 -89 20 -12 59 8 67 34 18 56 -176 255 -335
346 -105 60 -141 67 -165 30z"/>
<path d="M3480 4180 c-19 -19 -20 -33 -20 -466 l0 -447 73 -72 c223 -224 419
-405 438 -405 36 0 59 19 59 49 0 25 -35 63 -230 251 l-230 223 0 428 c0 375
-2 429 -16 443 -21 22 -50 20 -74 -4z"/>
<path d="M4376 3677 c-23 -17 -23 -49 -1 -157 24 -115 30 -128 61 -136 22 -6
31 -2 47 17 21 27 19 71 -10 188 -23 90 -55 119 -97 88z"/>
</g>
</svg>
