<?xml version="1.0" standalone="no"?>
<!DOCTYPE svg PUBLIC "-//W3C//DTD SVG 20010904//EN"
 "http://www.w3.org/TR/2001/REC-SVG-20010904/DTD/svg10.dtd">
<svg version="1.0" xmlns="http://www.w3.org/2000/svg"
 width="710.000000pt" height="755.000000pt" viewBox="0 0 710.000000 755.000000"
 preserveAspectRatio="xMidYMid meet">

<g transform="translate(0.000000,755.000000) scale(0.100000,-0.100000)"
fill="#000000" stroke="none">
<path d="M3350 5208 c-56 -38 -74 -71 -78 -143 -4 -61 -6 -66 -31 -71 -323
-71 -591 -239 -798 -501 l-66 -83 -976 0 c-932 0 -978 -1 -1016 -19 -53 -25
-98 -68 -127 -122 l-23 -44 -3 -558 c-2 -352 1 -571 7 -595 16 -58 58 -115
113 -153 l51 -34 987 -3 987 -2 62 -80 c195 -247 456 -417 760 -495 231 -59
441 -57 686 6 270 69 539 247 722 476 l74 93 972 0 c923 0 974 1 1013 19 60
27 109 75 132 129 20 45 21 69 24 617 l3 570 -27 50 c-32 62 -70 98 -128 124
-44 20 -61 21 -1020 21 l-975 1 -45 61 c-115 156 -302 311 -485 403 -96 48
-242 101 -326 119 -25 5 -27 10 -31 71 -4 72 -22 105 -78 143 -30 20 -44 22
-180 22 -136 0 -150 -2 -180 -22z m320 -98 c12 -12 20 -33 20 -52 l0 -33 -155
0 -155 0 0 37 c0 58 23 68 157 68 100 0 115 -2 133 -20z m113 -214 c171 -35
372 -123 503 -220 261 -197 434 -465 501 -776 22 -107 25 -380 4 -485 -63
-319 -233 -594 -485 -784 -243 -184 -526 -272 -826 -258 -336 17 -610 137
-846 372 -116 116 -175 195 -238 321 -96 192 -136 363 -136 585 0 214 35 370
127 556 122 252 324 455 578 581 203 100 355 133 585 127 85 -2 190 -11 233
-19z m-1463 -590 c0 -2 -17 -41 -39 -87 -90 -194 -125 -359 -124 -579 1 -242
46 -424 161 -652 2 -5 -416 -8 -928 -8 -1031 0 -975 -3 -1023 64 l-22 31 -3
560 c-3 636 -6 608 78 652 l43 23 929 0 c510 0 928 -2 928 -4z m4308 -7 c17
-6 43 -27 59 -47 l28 -37 3 -561 2 -560 -22 -34 c-13 -19 -39 -43 -58 -54 -35
-21 -47 -21 -967 -24 -513 -1 -933 -1 -933 1 0 2 17 42 39 88 89 194 125 360
125 579 -1 247 -44 421 -162 653 -6 12 1850 9 1886 -4z"/>
<path d="M3315 4804 c-358 -66 -674 -305 -840 -634 -38 -75 -83 -208 -102
-305 -20 -98 -22 -309 -3 -415 50 -294 227 -578 467 -749 186 -133 361 -199
592 -221 435 -44 862 173 1101 559 61 98 121 245 145 351 23 104 30 310 16
423 -7 51 -28 139 -47 197 -130 392 -454 690 -849 782 -119 27 -365 34 -480
12z m470 -113 c410 -102 728 -439 803 -851 76 -413 -102 -838 -451 -1079 -89
-61 -229 -123 -345 -152 -183 -46 -398 -40 -576 17 -225 72 -400 195 -536 376
-277 367 -292 860 -38 1240 160 239 418 410 698 462 115 21 335 15 445 -13z"/>
<path d="M3856 4529 c-35 -28 -33 -56 5 -77 185 -101 273 -171 361 -288 48
-64 75 -74 106 -38 12 14 22 29 22 34 0 18 -93 130 -159 193 -39 36 -95 82
-125 101 -50 32 -170 96 -179 96 -3 0 -16 -9 -31 -21z"/>
<path d="M3477 4482 c-15 -17 -17 -64 -17 -467 l0 -449 73 -71 c308 -302 420
-405 442 -405 30 0 55 25 55 56 0 23 -23 47 -372 383 l-88 85 0 427 c0 375 -2
429 -16 443 -21 21 -57 20 -77 -2z"/>
<path d="M4364 3965 c-15 -23 -14 -31 5 -113 12 -49 21 -99 21 -110 0 -49 78
-73 100 -31 21 38 -23 241 -57 267 -26 19 -51 14 -69 -13z"/>
</g>
</svg>
