<?xml version="1.0" standalone="no"?>
<!DOCTYPE svg PUBLIC "-//W3C//DTD SVG 20010904//EN"
 "http://www.w3.org/TR/2001/REC-SVG-20010904/DTD/svg10.dtd">
<svg version="1.0" xmlns="http://www.w3.org/2000/svg"
 width="659.000000pt" height="299.000000pt" viewBox="0 0 659.000000 299.000000"
 preserveAspectRatio="xMidYMid meet">

<g transform="translate(0.000000,299.000000) scale(0.100000,-0.100000)"
fill="#000000" stroke="none">
<path d="M2880 2852 c-43 -23 -80 -90 -80 -148 l0 -42 -67 -16 c-152 -39 -334
-126 -448 -216 -64 -50 -183 -170 -232 -232 l-44 -58 -852 0 c-535 0 -868 -4
-896 -11 -67 -15 -125 -61 -155 -121 l-26 -52 0 -507 c0 -332 4 -517 11 -536
21 -56 61 -102 112 -128 l51 -25 876 0 877 0 37 -54 c51 -74 216 -232 301
-287 390 -256 882 -278 1283 -57 149 82 310 223 404 355 l31 43 876 0 c867 0
875 0 918 21 60 29 110 90 123 153 8 35 10 207 8 541 -3 484 -3 491 -25 532
-12 22 -39 55 -60 72 -76 63 -52 61 -991 61 l-853 -1 -58 73 c-120 151 -272
272 -445 354 -83 39 -248 94 -282 94 -10 0 -14 15 -14 59 0 50 -4 65 -27 92
-41 48 -78 59 -205 59 -90 0 -120 -4 -148 -18z m280 -101 c5 -11 10 -31 10
-45 l0 -26 -135 0 -135 0 0 33 c0 52 12 57 137 57 101 0 113 -2 123 -19z m-5
-171 c258 -25 539 -164 711 -354 325 -356 400 -868 189 -1286 -132 -262 -332
-446 -605 -555 -256 -103 -579 -102 -836 0 -333 134 -579 405 -678 748 -79
273 -54 549 73 812 165 342 503 585 883 634 92 12 140 12 263 1z m-1236 -602
c-81 -161 -119 -328 -119 -528 0 -206 39 -381 119 -540 l31 -60 -844 2 c-839
3 -845 3 -873 24 -59 44 -58 33 -58 576 0 486 0 497 21 525 11 15 36 36 55 45
32 17 94 18 867 18 l832 0 -31 -62z m3898 45 c20 -9 44 -30 54 -47 18 -29 19
-59 19 -529 0 -542 1 -534 -57 -573 -27 -18 -62 -19 -870 -22 l-842 -2 34 72
c86 188 120 360 112 568 -7 186 -49 354 -123 503 l-24 47 831 0 c756 0 834 -2
866 -17z"/>
<path d="M2844 2484 c-202 -34 -398 -138 -557 -298 -189 -188 -293 -424 -304
-691 -16 -385 152 -716 474 -928 469 -310 1086 -199 1425 257 194 261 254 595
162 913 -63 222 -202 421 -393 562 -65 49 -204 121 -286 149 -150 51 -351 65
-521 36z m430 -109 c494 -132 798 -625 696 -1127 -70 -342 -322 -615 -670
-724 -78 -25 -99 -27 -260 -28 -153 -1 -185 2 -253 22 -516 148 -807 649 -681
1171 21 88 101 251 162 331 130 172 327 303 532 356 131 33 348 33 474 -1z"/>
<path d="M3318 2226 c-6 -14 -8 -31 -5 -39 3 -8 43 -34 88 -58 81 -43 189
-137 275 -241 17 -21 36 -38 43 -38 15 0 51 37 51 53 0 25 -104 149 -171 205
-79 64 -213 142 -247 142 -14 0 -26 -9 -34 -24z"/>
<path d="M2986 2188 c-14 -19 -16 -76 -16 -416 l0 -393 38 -39 c20 -22 120
-118 222 -215 148 -140 191 -175 213 -175 32 0 56 38 41 68 -5 10 -98 102
-206 206 l-198 188 0 377 c0 409 -2 421 -55 421 -13 0 -31 -10 -39 -22z"/>
<path d="M3780 1735 c-11 -13 -11 -26 -1 -68 7 -29 16 -76 21 -106 11 -62 24
-81 56 -81 42 0 50 37 31 137 -9 47 -23 96 -32 109 -18 28 -56 32 -75 9z"/>
</g>
</svg>
